<?xml version="1.0" encoding="UTF-8" standalone="no"?>
<!DOCTYPE svg PUBLIC "-//W3C//DTD SVG 1.1//EN" "http://www.w3.org/Graphics/SVG/1.1/DTD/svg11.dtd">
<svg width="100%" height="100%" viewBox="0 0 1080 1080" version="1.1" xmlns="http://www.w3.org/2000/svg" xmlns:xlink="http://www.w3.org/1999/xlink" xml:space="preserve" xmlns:serif="http://www.serif.com/" style="fill-rule:evenodd;clip-rule:evenodd;stroke-linecap:round;stroke-linejoin:round;stroke-miterlimit:1.5;">
    <g id="colorized" transform="matrix(1,0,0,1,-1351,0)">
        <rect x="1351" y="0" width="1080" height="1080" style="fill:none;"/>
        <g transform="matrix(0.848148,0,0,0.848148,1433,82)">
            <path d="M1080,52.784L1080,1027.216C1080,1056.348 1056.348,1080 1027.216,1080L52.784,1080C23.652,1080 0,1056.348 0,1027.216L0,52.784C0,23.652 23.652,0 52.784,0L1027.216,0C1056.348,0 1080,23.652 1080,52.784Z" style="fill:rgb(255,76,0);stroke:black;stroke-width:0.53px;"/>
        </g>
        <g transform="matrix(1,0,0,1,1174.051852,-190.885185)">
            <g transform="matrix(448,0,0,448,1091.03125,1107.9375)">
            </g>
            <text x="540px" y="1107.938px" style="font-family:'Inter-ExtraBold', 'Inter';font-weight:800;font-size:448px;fill:rgb(71,0,0);">BL</text>
        </g>
    </g>
</svg>
